<?xml version="1.0" standalone="no"?>
<!DOCTYPE svg PUBLIC "-//W3C//DTD SVG 20010904//EN"
 "http://www.w3.org/TR/2001/REC-SVG-20010904/DTD/svg10.dtd">
<svg version="1.0" xmlns="http://www.w3.org/2000/svg"
 width="500.000000pt" height="500.000000pt" viewBox="0 0 500.000000 500.000000"
 preserveAspectRatio="xMidYMid meet">
<metadata>
Created by potrace 1.11, written by Peter Selinger 2001-2013
</metadata>
<g transform="translate(0.000000,500.000000) scale(0.100000,-0.100000)"
fill="#000000" stroke="none">
<path d="M2260 4773 c-78 -6 -197 -26 -240 -39 -25 -8 -61 -19 -80 -25 -61
-20 -212 -99 -289 -152 -306 -212 -508 -595 -600 -1139 -11 -62 -22 -133 -26
-158 -3 -25 -8 -56 -10 -70 -2 -14 -7 -56 -10 -95 -3 -38 -8 -92 -12 -120 -20
-177 -23 -397 -9 -605 12 -175 15 -205 25 -290 6 -47 13 -112 16 -145 4 -33 9
-71 11 -85 3 -14 6 -36 8 -50 6 -41 16 -101 32 -180 8 -41 16 -89 18 -105 6
-42 22 -108 46 -190 12 -38 23 -77 25 -85 20 -91 178 -422 214 -450 3 -3 21
-27 40 -55 46 -67 266 -285 287 -285 3 0 24 -13 47 -29 76 -52 226 -121 296
-136 144 -32 222 -46 273 -51 135 -14 368 -5 422 16 13 5 26 6 29 3 6 -6 193
39 262 63 130 44 231 94 350 174 186 124 368 351 481 600 19 41 39 83 44 92
14 25 64 199 75 263 31 169 40 248 39 332 -4 193 -18 292 -59 403 -14 36 -27
94 -31 130 -10 106 -59 143 -209 155 -39 3 -97 10 -130 16 -68 12 -181 5 -202
-12 -7 -6 -13 -9 -13 -5 0 3 -16 -1 -37 -9 -20 -8 -66 -18 -102 -21 -36 -3
-82 -7 -101 -8 -19 -2 -62 -13 -95 -25 -37 -13 -94 -22 -151 -25 -50 -2 -107
-11 -127 -20 -22 -9 -67 -15 -110 -15 -103 0 -139 -18 -201 -102 -24 -33 -27
-47 -31 -150 -13 -267 1 -430 38 -479 21 -28 118 -58 172 -54 80 7 106 11 181
28 39 8 106 17 150 20 43 2 109 13 147 24 66 20 74 19 67 -13 -7 -33 -10 -46
-28 -100 -41 -127 -117 -254 -196 -328 -54 -51 -158 -107 -248 -133 -54 -17
-64 -18 -158 -29 -30 -4 -57 -8 -60 -10 -5 -3 -174 22 -195 29 -5 1 -23 7 -40
11 -69 19 -192 127 -242 212 -31 54 -122 276 -129 318 -5 29 -11 57 -52 250
-11 50 -22 124 -26 166 -4 42 -9 87 -12 100 -3 13 -7 59 -10 102 -2 44 -6 82
-8 86 -24 38 -25 529 -1 706 2 17 7 53 10 80 5 51 14 115 21 150 2 11 11 55
19 98 29 152 87 351 122 422 46 91 139 178 228 213 131 51 341 46 649 -18 105
-21 166 -26 166 -11 0 5 16 26 35 47 19 22 35 42 35 45 0 3 20 4 45 2 38 -4
47 -1 67 21 43 48 78 94 78 104 0 5 8 20 18 33 37 49 46 86 31 132 -7 23 -18
47 -24 54 -5 6 -30 35 -54 62 -49 57 -151 123 -311 199 -102 48 -265 109 -319
118 -14 3 -37 7 -51 10 -62 13 -211 22 -280 17z"/>
</g>
</svg>
